<svg width="20" height="20" viewBox="0 0 20 20" fill="none" xmlns="http://www.w3.org/2000/svg">
<g clip-path="url(#clip0)">
<path d="M19.218 3.67252C18.4913 1.90881 16.9579 0.743591 15.1166 0.555246C14.9149 0.534686 14.7091 0.524139 14.5046 0.524139C12.6674 0.524139 10.9511 1.36679 9.81854 2.80185C8.68612 1.36679 6.96982 0.524139 5.13261 0.524139C4.92807 0.524139 4.72205 0.534686 4.5206 0.555246C2.67923 0.743378 1.14584 1.90881 0.419096 3.67252C-0.352179 5.54425 -0.0445216 7.666 1.22212 9.20951L3.12708 11.531C3.19888 11.6185 3.30328 11.664 3.40832 11.664C3.4896 11.664 3.57099 11.637 3.63938 11.5814C3.7947 11.4541 3.81718 11.2251 3.68977 11.0697L1.78491 8.74834C0.688616 7.41225 0.423144 5.57333 1.09226 3.9496C1.71535 2.43763 3.02471 1.43912 4.59538 1.27858C4.77233 1.26058 4.95332 1.25131 5.13314 1.25131C6.89781 1.25131 8.53613 2.13785 9.51556 3.62245C9.58278 3.72461 9.69688 3.78587 9.81896 3.78587C9.94104 3.78587 10.0551 3.72461 10.1224 3.62245C11.1018 2.13764 12.7399 1.25131 14.5047 1.25131C14.6845 1.25131 14.8654 1.26037 15.0424 1.27858C16.6131 1.43912 17.9225 2.43763 18.5456 3.9496C19.2147 5.57333 18.9492 7.41214 17.8529 8.74834L16.5845 10.2941C16.457 10.4492 16.4795 10.6782 16.6348 10.8058C16.7899 10.9332 17.019 10.9107 17.1465 10.7554L18.415 9.20962C19.6816 7.666 19.9895 5.54425 19.218 3.67252Z" fill="#4D4D4D"/>
<path d="M13.321 14.8441C13.1658 14.7164 12.9364 14.739 12.8093 14.8945L9.81839 18.5393L6.82789 14.895C6.70059 14.7396 6.47134 14.717 6.31623 14.8446C6.16101 14.9719 6.13843 15.2009 6.26584 15.3563L9.53736 19.343C9.6064 19.427 9.70952 19.476 9.81839 19.476C9.92726 19.476 10.0304 19.4271 10.0991 19.343L13.3712 15.3557C13.4988 15.2006 13.4762 14.9715 13.321 14.8441Z" fill="#4D4D4D"/>
<path d="M14.9093 12.0276H5.45508C5.25438 12.0276 5.09149 12.1905 5.09149 12.3912V14.9366C5.09149 15.1373 5.25438 15.3001 5.45508 15.3001H14.9093C15.1102 15.3001 15.2729 15.1375 15.2729 14.9366V12.3912C15.2729 12.1905 15.11 12.0276 14.9093 12.0276ZM14.5457 14.573H5.81877V12.7548H14.5457V14.573Z" fill="#4D4D4D"/>
<path d="M1.81889 12.0276H0.728027C0.527325 12.0276 0.364441 12.1905 0.364441 12.3912V14.9366C0.364441 15.1373 0.527325 15.3001 0.728027 15.3001H1.81889C2.01981 15.3001 2.18248 15.1375 2.18248 14.9366V12.3912C2.18248 12.1905 2.01959 12.0276 1.81889 12.0276ZM1.45531 14.573H1.09172V12.7548H1.45531V14.573Z" fill="#4D4D4D"/>
<path d="M5.03118 9.48233H4.06101C3.62669 9.48233 3.27344 9.83558 3.27344 10.2699V17.058C3.27344 17.4923 3.62669 17.8456 4.06101 17.8456H5.03118C5.4655 17.8456 5.81875 17.4923 5.81875 17.058V10.2699C5.81875 9.83558 5.4655 9.48233 5.03118 9.48233ZM5.09147 17.058C5.09147 17.0912 5.06442 17.1184 5.03107 17.1184H4.06091C4.02767 17.1184 4.0005 17.0913 4.0005 17.058V10.2699C4.0005 10.2367 4.02756 10.2095 4.06091 10.2095H5.03107C5.06431 10.2095 5.09147 10.2366 5.09147 10.2699V17.058Z" fill="#4D4D4D"/>
<path d="M3.28083 10.937H2.17527C1.77834 10.937 1.45544 11.2599 1.45544 11.6568V15.6714C1.45544 16.0683 1.77834 16.3912 2.17527 16.3912H3.28083C3.67776 16.3912 4.00065 16.0683 4.00065 15.6714V11.6568C4.00065 11.2599 3.67776 10.937 3.28083 10.937ZM3.27337 15.6642L2.18251 15.6715L2.17505 11.6642L3.27337 11.6567V15.6642Z" fill="#4D4D4D"/>
<path d="M19.6363 12.0276H18.5454C18.3447 12.0276 18.1818 12.1905 18.1818 12.3912V14.9366C18.1818 15.1373 18.3447 15.3001 18.5454 15.3001H19.6363C19.8372 15.3001 19.9999 15.1375 19.9999 14.9366V12.3912C20 12.1905 19.8371 12.0276 19.6363 12.0276ZM19.2727 14.573H18.9091V12.7548H19.2727V14.573Z" fill="#4D4D4D"/>
<path d="M16.3034 9.48233H15.3332C14.8989 9.48233 14.5457 9.83558 14.5457 10.2699V17.058C14.5457 17.4923 14.8989 17.8456 15.3332 17.8456H16.3034C16.7377 17.8456 17.091 17.4923 17.091 17.058V10.2699C17.091 9.83558 16.7377 9.48233 16.3034 9.48233ZM16.3637 17.058C16.3637 17.0912 16.3366 17.1184 16.3033 17.1184H15.3331C15.2999 17.1184 15.2727 17.0913 15.2727 17.058V10.2699C15.2727 10.2367 15.2998 10.2095 15.3331 10.2095H16.3033C16.3365 10.2095 16.3637 10.2366 16.3637 10.2699V17.058Z" fill="#4D4D4D"/>
<path d="M18.1893 10.937H17.0837C16.6868 10.937 16.3639 11.2599 16.3639 11.6568V15.6714C16.3639 16.0683 16.6868 16.3912 17.0837 16.3912H18.1893C18.5862 16.3912 18.9091 16.0683 18.9091 15.6714V11.6568C18.9091 11.2599 18.5862 10.937 18.1893 10.937ZM17.091 15.6638L17.0835 11.6639L18.1818 11.6565L18.1893 15.6638H17.091Z" fill="#4D4D4D"/>
<path d="M10.1823 12.0276C9.98155 12.0276 9.81866 12.1905 9.81866 12.3912V14.9366C9.81866 15.1373 9.98155 15.3001 10.1823 15.3001C10.3832 15.3001 10.5458 15.1375 10.5458 14.9366V12.3912C10.5458 12.1905 10.383 12.0276 10.1823 12.0276Z" fill="#4D4D4D"/>
<path d="M8.36407 12.0276C8.16337 12.0276 8.00049 12.1905 8.00049 12.3912V14.9366C8.00049 15.1373 8.16337 15.3001 8.36407 15.3001C8.56499 15.3001 8.72766 15.1375 8.72766 14.9366V12.3912C8.72766 12.1905 8.56478 12.0276 8.36407 12.0276Z" fill="#4D4D4D"/>
<path d="M12.0002 12.0276C11.7995 12.0276 11.6367 12.1905 11.6367 12.3912V14.9366C11.6367 15.1373 11.7995 15.3001 12.0002 15.3001C12.2012 15.3001 12.3638 15.1375 12.3638 14.9366V12.3912C12.3639 12.1905 12.2011 12.0276 12.0002 12.0276Z" fill="#4D4D4D"/>
</g>
<defs>
<clipPath id="clip0">
<rect width="20" height="20" fill="white"/>
</clipPath>
</defs>
</svg>
