<svg width="32" height="32" viewBox="0 0 32 32" fill="none" xmlns="http://www.w3.org/2000/svg">
<path d="M29.146 25.5861V6.41406L30.439 7.70706L31.853 6.29306L28.146 2.58606L24.439 6.29306L25.853 7.70706L27.146 6.41406V25.5861L25.853 24.2931L24.439 25.7071L28.146 29.4141L31.853 25.7071L30.439 24.2931L29.146 25.5861Z" fill="#E5C215"/>
<path d="M22 0H0.146484V2H22V0Z" fill="#E5C215"/>
<path d="M22.147 6H6.14697V8H22.147V6Z" fill="#E5C215"/>
<path d="M22.1465 12H0.146484V14H22.1465V12Z" fill="#E5C215"/>
<path d="M22.1465 24H0.146484V26H22.1465V24Z" fill="#E5C215"/>
<path d="M22.147 18H6.14697V20H22.147V18Z" fill="#E5C215"/>
<path d="M22.147 30H6.14697V32H22.147V30Z" fill="#E5C215"/>
</svg>
