<svg width="32" height="32" viewBox="0 0 32 32" fill="none" xmlns="http://www.w3.org/2000/svg">
<g clip-path="url(#clip0)">
<path d="M9 25.3334C8.448 25.3334 8 24.8854 8 24.3334V15.6667C8 15.1147 8.448 14.6667 9 14.6667C9.552 14.6667 10 15.1147 10 15.6667V24.3334C10 24.8854 9.552 25.3334 9 25.3334Z" fill="#E5C215"/>
<path d="M20.6663 25.3334C18.829 25.3334 17.333 23.8387 17.333 22.0001V18.0001C17.333 16.1627 18.829 14.6667 20.6663 14.6667C22.5037 14.6667 23.9996 16.1627 23.9996 18.0001V18.3334C23.9996 18.8854 23.5517 19.3334 22.9997 19.3334C22.4477 19.3334 21.9997 18.8854 21.9997 18.3334V18.0001C21.9997 17.2654 21.401 16.6667 20.6663 16.6667C19.9317 16.6667 19.333 17.2654 19.333 18.0001V22.0001C19.333 22.7361 19.9317 23.3334 20.6663 23.3334C21.401 23.3334 21.9997 22.7361 21.9997 22.0001H20.9997C20.4477 22.0001 19.9997 21.5521 19.9997 21.0001C19.9997 20.4481 20.4477 20.0001 20.9997 20.0001H22.9997C23.5517 20.0001 23.9996 20.4481 23.9996 21.0001V22.0001C23.9996 23.8387 22.5037 25.3334 20.6663 25.3334Z" fill="#E5C215"/>
<path d="M13.6667 25.4161C13.42 25.4161 13.172 25.3254 12.9787 25.1427L8.31201 20.7267C8.11201 20.5361 7.99868 20.2721 8.00001 19.9947C8.00134 19.7187 8.11734 19.4561 8.32001 19.2667L12.9867 14.9334C13.392 14.5587 14.024 14.5801 14.4 14.9867C14.776 15.3907 14.752 16.0241 14.3467 16.4001L10.4613 20.0067L14.3533 23.6907C14.7547 24.0707 14.772 24.7041 14.392 25.1054C14.196 25.3107 13.932 25.4161 13.6667 25.4161Z" fill="#E5C215"/>
<path d="M29.403 32H2.59765C1.90298 32 1.25098 31.6947 0.805648 31.1613C0.360315 30.628 0.177648 29.9307 0.301648 29.248L3.81631 9.91467C4.01898 8.80533 4.98431 8 6.11231 8H25.887C27.015 8 27.9803 8.80533 28.183 9.916L31.6976 29.2493C31.8216 29.9307 31.639 30.628 31.1936 31.1613C30.7483 31.6947 30.0963 32 29.403 32ZM6.11231 10C5.95098 10 5.81365 10.1147 5.78431 10.2747L2.26965 29.608C2.24565 29.7427 2.30431 29.8373 2.34165 29.8813C2.37898 29.9253 2.46165 30.0013 2.59765 30.0013H29.403C29.539 30.0013 29.6216 29.9253 29.659 29.8813C29.6963 29.8373 29.755 29.7427 29.731 29.6093L26.2163 10.276C26.187 10.1147 26.0496 10 25.8883 10H6.11231Z" fill="#E5C215"/>
<path d="M15.9997 9.33333C13.4263 9.33333 11.333 7.24 11.333 4.66667C11.333 2.09333 13.4263 0 15.9997 0C18.573 0 20.6663 2.09333 20.6663 4.66667C20.6663 7.24 18.573 9.33333 15.9997 9.33333ZM15.9997 2C14.529 2 13.333 3.196 13.333 4.66667C13.333 6.13733 14.529 7.33333 15.9997 7.33333C17.4703 7.33333 18.6663 6.13733 18.6663 4.66667C18.6663 3.196 17.4703 2 15.9997 2Z" fill="#E5C215"/>
</g>
<defs>
<clipPath id="clip0">
<rect width="32" height="32" fill="white"/>
</clipPath>
</defs>
</svg>
