<svg width="16" height="16" viewBox="0 0 16 16" fill="none" xmlns="http://www.w3.org/2000/svg">
<path d="M15.9052 6.93694L13.8462 5.10114V2.85714C13.8451 2.06864 13.157 1.42955 12.3077 1.42857H9.72671L8.21289 0.0795201C8.0939 -0.0265067 7.9061 -0.0265067 7.78711 0.0795201L6.27329 1.42857H2.46154C1.61223 1.42955 0.92413 2.06864 0.923079 2.85714V4C0.923079 4.15778 1.06085 4.28571 1.23077 4.28571H2.15385V5.10114L0.0948036 6.93694C0.0339563 6.99051 -0.000298501 7.06501 1.96006e-06 7.14286V15.7143C1.96006e-06 15.8721 0.137772 16 0.307694 16H15.6923C15.8622 16 16 15.8721 16 15.7143V7.14286C15.9998 7.06515 15.9654 6.99093 15.9046 6.9375L15.9052 6.93694ZM13.8462 5.89314L14.9277 6.85714H13.8462V5.89314ZM13.8462 7.42857H14.7384L13.8462 8.02511V7.42857ZM11.3846 4V2.85714C11.3846 2.38379 11.7979 2 12.3077 2C12.8175 2 13.2308 2.38379 13.2308 2.85714V8.43666L8 11.9337L2.76923 8.43666V4.28571H11.0769C11.2468 4.28571 11.3846 4.15778 11.3846 4ZM8 0.68178L8.83819 1.42857H7.16181L8 0.68178ZM1.53846 3.71429V2.85714C1.53846 2.38379 1.95177 2 2.46154 2H11.0849C10.8813 2.24581 10.7704 2.54701 10.7692 2.85714V3.71429H1.53846ZM2.15385 5.89314V6.85714H1.07227L2.15385 5.89314ZM2.15385 7.42857V8.02511L1.26157 7.42857H2.15385ZM0.615386 7.70061L6.56581 11.6789L0.615386 15.1938V7.70061ZM1.36494 15.4286L7.10397 12.0386L7.82031 12.5177C7.92758 12.5894 8.07242 12.5894 8.17969 12.5177L8.89603 12.0386L14.6351 15.4286H1.36494ZM15.3846 15.1938L9.43419 11.6794L15.3846 7.70061V15.1938Z" fill="#4D4D4D"/>
<path d="M5.45166 7.03229H10.6129V7.54842H5.45166V7.03229Z" fill="#4D4D4D"/>
<path d="M5.45166 6H10.6129V6.51613H5.45166V6Z" fill="#4D4D4D"/>
<path d="M5.45166 8.06451H10.6129V8.58064H5.45166V8.06451Z" fill="#4D4D4D"/>
</svg>
