<svg width="61" height="62" viewBox="0 0 61 62" fill="none" xmlns="http://www.w3.org/2000/svg">
<g clip-path="url(#clip0)">
<path d="M53.3356 15.5H40.6589L39.5447 9.92856C39.3628 9.01873 38.5639 8.36389 37.6362 8.36389H23.364C22.4363 8.36389 21.6375 9.01873 21.4557 9.92856L20.3413 15.5H18.402V10.3101C18.402 9.23526 17.5306 8.36389 16.4558 8.36389H7.89238C6.81758 8.36389 5.94622 9.23526 5.94622 10.3101V15.6968C2.5502 16.4791 0.00935364 19.5249 0.00935364 23.1551V47.4179C0.00935364 51.6389 3.44336 55.073 7.66441 55.073H53.3355C57.5565 55.073 60.9905 51.6389 60.9905 47.4179V23.1551C60.9907 18.934 57.5567 15.5 53.3356 15.5ZM9.83866 12.2563H14.5096V15.5H9.83866V12.2563ZM57.0982 47.4179C57.0982 49.4927 55.4103 51.1805 53.3356 51.1805H7.66441C5.58962 51.1805 3.9018 49.4926 3.9018 47.4179V23.1551C3.9018 21.0803 5.58974 19.3925 7.66441 19.3925C9.08163 19.3925 20.3247 19.3925 21.9367 19.3925C22.8644 19.3925 23.6632 18.7376 23.8449 17.8278L24.9594 12.2563H36.0406L37.1548 17.8278C37.3367 18.7376 38.1355 19.3925 39.0632 19.3925H53.3355C55.4103 19.3925 57.0981 21.0804 57.0981 23.1551V47.4179H57.0982Z" fill="#DBDBDB"/>
<path d="M30.5 20.4953C22.3441 20.4953 15.7088 27.1306 15.7088 35.2865C15.7088 43.4424 22.3441 50.0776 30.5 50.0776C38.6559 50.0776 45.2912 43.4424 45.2912 35.2865C45.2912 27.1306 38.6559 20.4953 30.5 20.4953ZM30.5 46.1853C24.4904 46.1853 19.6013 41.2962 19.6013 35.2866C19.6013 29.277 24.4904 24.3879 30.5 24.3879C36.5096 24.3879 41.3988 29.277 41.3988 35.2866C41.3988 41.2962 36.5096 46.1853 30.5 46.1853Z" fill="#DBDBDB"/>
<path d="M30.5 27.6314C26.279 27.6314 22.845 31.0654 22.845 35.2865C22.845 39.5075 26.279 42.9415 30.5 42.9415C34.7211 42.9415 38.1551 39.5075 38.1551 35.2865C38.1551 31.0654 34.7211 27.6314 30.5 27.6314ZM30.5 39.0492C28.4252 39.0492 26.7374 37.3613 26.7374 35.2866C26.7374 33.2119 28.4252 31.5238 30.5 31.5238C32.5748 31.5238 34.2628 33.2118 34.2628 35.2866C34.2628 37.3614 32.5748 39.0492 30.5 39.0492Z" fill="#DBDBDB"/>
<path d="M51.9084 22.6361H48.6505C47.5757 22.6361 46.7044 23.5075 46.7044 24.5823C46.7044 25.6571 47.5757 26.5284 48.6505 26.5284H51.9084C52.9832 26.5284 53.8545 25.6571 53.8545 24.5823C53.8545 23.5075 52.9832 22.6361 51.9084 22.6361Z" fill="#DBDBDB"/>
</g>
<defs>
<clipPath id="clip0">
<rect x="0.00935364" y="0.495361" width="60.9813" height="60.9813" fill="white"/>
</clipPath>
</defs>
</svg>
