<svg width="145" height="35" viewBox="0 0 145 35" fill="none" xmlns="http://www.w3.org/2000/svg">
<g clip-path="url(#clip0)">
<path d="M38.91 17.6374C38.91 13.9557 41.4604 11.821 44.5484 11.821C46.2275 11.821 47.4199 12.5077 48.1983 13.2616L46.8199 14.8709C46.2453 14.3638 45.6275 13.9875 44.6363 13.9875C42.8554 13.9875 41.5903 15.3291 41.5903 17.5543C41.5903 19.8356 42.6681 21.1602 44.8453 21.1602C45.309 21.1602 45.788 21.0441 46.0708 20.8303V18.9143H44.1548V16.8663H48.3945V21.9826C47.597 22.7316 46.1918 23.3267 44.5765 23.3267C41.3891 23.3255 38.91 21.374 38.91 17.6374Z" fill="black"/>
<path d="M49.8531 26.2532L50.3168 24.3458C50.4799 24.3861 50.7194 24.4533 50.9092 24.4533C51.7691 24.4533 52.2227 23.9988 52.4494 23.3438L52.5806 22.9039L49.183 14.6742H51.8048L53.0635 18.3082C53.3183 19.0732 53.5272 19.8748 53.759 20.702H53.8304C54.0266 19.9029 54.2228 19.1013 54.4419 18.3082L55.5107 14.6742H58.0089L54.9515 23.2118C54.1158 25.327 53.1756 26.4231 51.1067 26.4231C50.5615 26.4231 50.2124 26.3559 49.8531 26.2532Z" fill="black"/>
<path d="M58.9236 14.6742H61.0524L61.2409 15.758H61.3059C62.0282 15.0615 62.8181 14.4701 63.9748 14.4701C65.2131 14.4701 65.9609 14.9833 66.4055 15.8925C67.18 15.1177 68.0068 14.4701 69.1699 14.4701C71.0719 14.4701 71.9242 15.7666 71.9242 17.8769V23.1202H69.3152V18.197C69.3152 16.9812 68.9687 16.6012 68.2272 16.6012C67.7852 16.6012 67.2832 16.8651 66.7291 17.4223V23.1202H64.12V18.197C64.12 16.9812 63.7735 16.6012 63.0321 16.6012C62.5964 16.6012 62.0881 16.8651 61.5339 17.4223V23.1202H58.9249V14.6742H58.9236Z" fill="black"/>
<path d="M78.8341 15.1031H80.0023L80.1221 16.2652H80.1692C80.9004 15.5076 81.7744 14.9052 82.7706 14.9052C84.0484 14.9052 84.7337 15.4917 85.079 16.4338C85.9465 15.532 86.8192 14.9052 87.8358 14.9052C89.5531 14.9052 90.3786 15.9951 90.3786 18.0406V23.1214H88.9645V18.2166C88.9645 16.7234 88.4715 16.0843 87.409 16.0843C86.7606 16.0843 86.0867 16.4912 85.3134 17.316V23.1226H83.8993V18.2178C83.8993 16.7246 83.4063 16.0855 82.3438 16.0855C81.717 16.0855 81.0215 16.4924 80.2482 17.3172V23.1238H78.8341V15.1031Z" fill="#4D4D4D"/>
<path d="M93.0029 21.0392C93.0029 19.2918 94.5737 18.4194 98.1369 18.0479C98.1331 17.0166 97.7764 16.022 96.412 16.022C95.4451 16.022 94.5737 16.4619 93.9189 16.881L93.3647 15.9511C94.1342 15.4672 95.3062 14.9039 96.6477 14.9039C98.6873 14.9039 99.551 16.204 99.551 18.2007V23.1202H98.3828L98.2631 22.1622H98.2159C97.4197 22.7976 96.4884 23.3181 95.4515 23.3181C94.0539 23.3193 93.0029 22.486 93.0029 21.0392ZM98.1369 21.1651V18.9387C95.3355 19.2613 94.389 19.9199 94.389 20.9451C94.389 21.8567 95.0336 22.2269 95.854 22.2269C96.6617 22.2257 97.328 21.8494 98.1369 21.1651Z" fill="#4D4D4D"/>
<path d="M102.619 15.1031H103.787L103.907 16.259H103.954C104.75 15.5076 105.61 14.9052 106.758 14.9052C108.52 14.9052 109.311 15.9951 109.311 18.0406V23.1214H107.897V18.2166C107.897 16.7234 107.425 16.0843 106.319 16.0843C105.465 16.0843 104.872 16.5034 104.034 17.316V23.1226H102.62V15.1031H102.619Z" fill="#4D4D4D"/>
<path d="M111.939 21.0392C111.939 19.2918 113.51 18.4194 117.073 18.0479C117.069 17.0166 116.712 16.022 115.348 16.022C114.381 16.022 113.51 16.4619 112.855 16.881L112.301 15.9511C113.07 15.4672 114.242 14.9039 115.584 14.9039C117.623 14.9039 118.487 16.204 118.487 18.2007V23.1202H117.319L117.199 22.1622H117.152C116.356 22.7976 115.424 23.3181 114.387 23.3181C112.989 23.3193 111.939 22.486 111.939 21.0392ZM117.073 21.1651V18.9387C114.271 19.2613 113.325 19.9199 113.325 20.9451C113.325 21.8567 113.969 22.2269 114.79 22.2269C115.596 22.2257 116.263 21.8494 117.073 21.1651Z" fill="#4D4D4D"/>
<path d="M120.92 24.661C120.92 23.9743 121.376 23.3279 122.146 22.8477V22.7829C121.72 22.5275 121.398 22.0987 121.398 21.4681C121.398 20.8034 121.885 20.2719 122.318 19.9798V19.9138C121.763 19.4972 121.235 18.7176 121.235 17.7608C121.235 16.0073 122.676 14.9052 124.371 14.9052C124.831 14.9052 125.248 14.9919 125.551 15.1031H128.467V16.1479H126.751C127.146 16.512 127.433 17.1132 127.433 17.7975C127.433 19.5143 126.081 20.5773 124.371 20.5773C123.966 20.5773 123.504 20.482 123.125 20.3061C122.823 20.548 122.593 20.8144 122.593 21.2531C122.593 21.7614 122.937 22.1231 124.058 22.1231H125.685C127.627 22.1231 128.605 22.7084 128.605 24.0379C128.605 25.5274 126.961 26.8104 124.378 26.8104C122.332 26.8104 120.92 26.0418 120.92 24.661ZM127.221 24.2407C127.221 23.499 126.635 23.2448 125.536 23.2448H124.094C123.775 23.2448 123.379 23.2118 123.008 23.1251C122.411 23.532 122.155 24.0097 122.155 24.4692C122.155 25.3307 123.06 25.8744 124.579 25.8744C126.173 25.8756 127.221 25.0777 127.221 24.2407ZM126.148 17.7608C126.148 16.5951 125.357 15.8888 124.373 15.8888C123.388 15.8888 122.597 16.5853 122.597 17.7608C122.597 18.9277 123.409 19.6658 124.373 19.6658C125.336 19.6658 126.148 18.9277 126.148 17.7608Z" fill="#4D4D4D"/>
<path d="M130.031 19.122C130.031 16.512 131.865 14.9039 133.79 14.9039C135.922 14.9039 137.126 16.3727 137.126 18.6662C137.126 18.9522 137.101 19.2393 137.06 19.4373H131.43C131.531 21.1357 132.614 22.2367 134.207 22.2367C135.01 22.2367 135.669 21.9886 136.288 21.5964L136.795 22.4872C136.062 22.9466 135.172 23.3193 134.034 23.3193C131.805 23.3193 130.031 21.7565 130.031 19.122ZM135.875 18.4658C135.875 16.859 135.122 15.9853 133.814 15.9853C132.638 15.9853 131.588 16.8908 131.416 18.4658H135.875Z" fill="#4D4D4D"/>
<path d="M139.612 15.1031H140.78L140.899 16.5633H140.947C141.529 15.5454 142.382 14.9052 143.324 14.9052C143.694 14.9052 143.953 14.9504 144.215 15.0701L143.952 16.2603C143.664 16.1735 143.475 16.1283 143.14 16.1283C142.435 16.1283 141.591 16.6158 141.026 17.9722V23.1214H139.612V15.1031Z" fill="#4D4D4D"/>
<path d="M75.3231 20.339C76.0971 20.339 76.7245 19.7372 76.7245 18.9949C76.7245 18.2526 76.0971 17.6508 75.3231 17.6508C74.5492 17.6508 73.9218 18.2526 73.9218 18.9949C73.9218 19.7372 74.5492 20.339 75.3231 20.339Z" fill="#F2CC11"/>
</g>
<path d="M29.3233 8.44747L16.1945 0.865884C15.6587 0.556831 14.9978 0.556831 14.462 0.865884L1.33318 8.44747C0.797387 8.75652 0.466919 9.32964 0.466919 9.94775V25.1129C0.466919 25.7329 0.797387 26.3041 1.33318 26.6132L14.462 34.1947C14.9978 34.5038 15.6587 34.5038 16.1945 34.1947L29.3233 26.6132C29.8591 26.3041 30.1896 25.731 30.1896 25.1129V9.94775C30.1896 9.32769 29.8591 8.75652 29.3233 8.44747ZM28.1325 23.9138C28.1325 24.5398 27.7981 25.1168 27.2564 25.4298L16.2023 31.8142C15.6607 32.1272 14.9939 32.1272 14.4522 31.8142L3.39812 25.4298C2.85646 25.1168 2.52208 24.5398 2.52208 23.9138V11.1448C2.52208 10.5189 2.85646 9.94188 3.39812 9.62891L14.4522 3.24442C14.9939 2.93146 15.6607 2.93146 16.2023 3.24442L27.2564 9.62891C27.7981 9.94188 28.1325 10.5189 28.1325 11.1448V23.9138Z" fill="#FFE000"/>
<path d="M21.2298 20.7744L21.3608 20.7725C21.8731 20.7627 22.3639 20.5495 22.7433 20.17C23.0561 19.857 23.2634 19.4482 23.324 19.0198L23.3397 18.9064H23.5215C23.8716 18.9064 24.2157 18.7656 24.4621 18.5171C24.7163 18.2629 24.8512 17.9382 24.8512 17.5763C24.8512 17.2262 24.7104 16.8819 24.4621 16.6354C24.2079 16.3812 23.8833 16.2462 23.5215 16.2462H23.3397L23.324 16.1327C23.2634 15.7044 23.0561 15.2956 22.7433 14.9826C22.3698 14.609 21.8907 14.3997 21.3588 14.3801L21.2317 14.3762V13.8892C21.2317 13.5566 21.1085 13.2593 20.8778 13.0266L20.8739 13.0226C20.6705 12.7997 20.3674 12.6706 20.0233 12.6608H18.7679C18.5723 12.6608 18.3944 12.8388 18.3944 13.0344L18.3826 16.2384H11.6188V13.0246C11.6188 12.829 11.4408 12.651 11.2453 12.651H9.98599C9.66334 12.651 9.34851 12.7801 9.12364 13.005C8.89094 13.2378 8.7697 13.5351 8.7697 13.8677V14.3586L8.63869 14.3606C8.12636 14.3704 7.63554 14.5855 7.25619 14.963C6.94332 15.276 6.73605 15.6848 6.67543 16.1132L6.65978 16.2266H6.47793C6.1279 16.2266 5.78375 16.3675 5.53736 16.6159C5.28315 16.8702 5.14822 17.1949 5.14822 17.5567C5.14822 17.9069 5.28902 18.2511 5.53736 18.4976C5.79157 18.7519 6.11617 18.8868 6.47793 18.8868H6.65978L6.67543 19.0003C6.73605 19.4287 6.94332 19.8375 7.25619 20.1504C7.62968 20.524 8.10876 20.7314 8.64064 20.7529L8.76775 20.7568V21.2439C8.76775 21.5666 8.8968 21.8815 9.12168 22.1065C9.35438 22.3392 9.6516 22.4605 9.98403 22.4605H11.2433C11.4389 22.4605 11.6168 22.2825 11.6168 22.0869V18.9181H18.3807V22.1104C18.3807 22.306 18.5586 22.484 18.7542 22.484H20.0135C20.3361 22.484 20.651 22.3549 20.8758 22.1299C21.087 21.9187 21.2102 21.6351 21.2298 21.3084V20.7744ZM23.3436 16.9914H23.5215C23.6643 16.9914 23.8168 17.056 23.9244 17.1597C24.0534 17.2633 24.118 17.412 24.1043 17.5802C24.1023 17.7328 24.0436 17.8697 23.9302 17.9832C23.8227 18.0907 23.6662 18.1572 23.5215 18.1572H23.3436V16.9914ZM21.2415 15.1019L21.3842 15.1136C21.703 15.1391 21.9924 15.2721 22.2212 15.5009C22.4676 15.7474 22.6083 16.0799 22.6083 16.4164V18.7558C22.5829 19.1098 22.4461 19.4228 22.2212 19.6477C21.9983 19.8707 21.6932 20.0116 21.3842 20.035L21.2415 20.0468V15.1019ZM6.63045 18.1572H6.4525C6.3078 18.1572 6.15137 18.0907 6.04382 17.9832C5.94605 17.8854 5.88543 17.7465 5.86978 17.5861L5.86783 17.5743L5.86978 17.5626C5.88347 17.4022 5.94409 17.2653 6.04382 17.1655C6.15137 17.058 6.3078 16.9914 6.4525 16.9914H6.63045V18.1572ZM8.75601 20.0468L8.61326 20.035C8.29453 20.0096 8.00512 19.8766 7.77634 19.6477C7.54168 19.413 7.4009 19.0903 7.38916 18.7597V16.4144C7.38916 16.0799 7.52995 15.7454 7.77634 15.499C8.00512 15.2701 8.29453 15.1371 8.61326 15.1117L8.75601 15.1V20.0468ZM10.8698 21.7446H9.9723C9.84715 21.7446 9.73569 21.6977 9.64183 21.6038C9.55579 21.5177 9.50104 21.3906 9.50104 21.2732V13.8501C9.50104 13.7249 9.54797 13.6134 9.64183 13.5195C9.72787 13.4334 9.85497 13.3786 9.9723 13.3786H10.8698V21.7446ZM18.3807 18.169H11.6168V17.0032H18.3807V18.169ZM20.4926 21.3162C20.4769 21.4297 20.428 21.5314 20.3537 21.6057C20.2677 21.6918 20.1406 21.7466 20.0233 21.7466H19.1257V13.4041H20.0233C20.1484 13.4041 20.2599 13.451 20.3537 13.5449C20.4398 13.631 20.4945 13.7581 20.4945 13.8755L20.4926 21.3162Z" fill="#4D4D4D"/>
<defs>
<clipPath id="clip0">
<rect x="37" y="8" width="108" height="21" fill="white"/>
</clipPath>
</defs>
</svg>
