<svg width="161" height="176" viewBox="0 0 161 176" fill="none" xmlns="http://www.w3.org/2000/svg">
<rect width="161" height="176" fill="#F2F2F2"/>
<path d="M77.5012 85.7193C82.1336 85.7193 86.1444 84.0578 89.4224 80.7798C92.6994 77.5023 94.3614 73.492 94.3614 68.8591C94.3614 64.2278 92.6999 60.217 89.4219 56.9384C86.1438 53.6614 82.1331 52 77.5012 52C72.8682 52 68.858 53.6614 65.5805 56.939C62.303 60.2165 60.641 64.2272 60.641 68.8591C60.641 73.492 62.303 77.5028 65.5805 80.7803C68.8591 84.0573 72.8698 85.7193 77.5012 85.7193V85.7193ZM68.4815 59.8394C70.9964 57.3245 73.9465 56.1021 77.5012 56.1021C81.0553 56.1021 84.006 57.3245 86.5214 59.8394C89.0363 62.3548 90.2593 65.3055 90.2593 68.8591C90.2593 72.4138 89.0363 75.3639 86.5214 77.8793C84.006 80.3947 81.0553 81.6172 77.5012 81.6172C73.9476 81.6172 70.9974 80.3942 68.4815 77.8793C65.9661 75.3644 64.7431 72.4138 64.7431 68.8591C64.7431 65.3055 65.9661 62.3548 68.4815 59.8394Z" fill="#868686"/>
<path d="M107.002 105.827C106.907 104.463 106.716 102.975 106.435 101.403C106.151 99.8205 105.785 98.3241 105.347 96.9564C104.894 95.5427 104.279 94.1467 103.518 92.8089C102.73 91.4203 101.802 90.2112 100.762 89.2163C99.6742 88.1754 98.3423 87.3385 96.802 86.7281C95.2672 86.1209 93.5662 85.8133 91.7466 85.8133C91.0321 85.8133 90.341 86.1065 89.0064 86.9754C88.185 87.511 87.2242 88.1305 86.1519 88.8157C85.2349 89.4 83.9927 89.9474 82.4583 90.443C80.9613 90.9274 79.4414 91.1731 77.9407 91.1731C76.4411 91.1731 74.9212 90.9274 73.4231 90.443C71.8904 89.9479 70.6476 89.4005 69.7323 88.8163C68.67 88.1375 67.7087 87.518 66.875 86.9749C65.5415 86.1059 64.8504 85.8127 64.1359 85.8127C62.3158 85.8127 60.6154 86.1209 59.081 86.7287C57.5419 87.338 56.2094 88.1749 55.1204 89.2168C54.0801 90.2123 53.153 91.4209 52.3647 92.8089C51.6047 94.1467 50.9895 95.5422 50.5366 96.9569C50.0992 98.3246 49.7334 99.8205 49.4493 101.403C49.1673 102.973 48.9766 104.461 48.8821 105.828C48.7892 107.165 48.7422 108.556 48.7422 109.962C48.7422 113.616 49.9038 116.574 52.1943 118.755C54.4566 120.908 57.4495 122 61.0901 122H94.7956C98.4352 122 101.428 120.908 103.691 118.755C105.982 116.575 107.144 113.616 107.144 109.961C107.143 108.551 107.095 107.16 107.002 105.827V105.827ZM100.862 115.783C99.3676 117.206 97.3831 117.898 94.795 117.898H61.0901C58.5016 117.898 56.517 117.206 55.0227 115.784C53.5567 114.389 52.8443 112.484 52.8443 109.962C52.8443 108.65 52.8875 107.355 52.9741 106.112C53.0584 104.892 53.2309 103.552 53.4868 102.128C53.7394 100.722 54.0609 99.4023 54.4433 98.2077C54.8102 97.0621 55.3106 95.9278 55.9311 94.8351C56.5234 93.7937 57.2049 92.9002 57.9568 92.1803C58.6602 91.5069 59.5467 90.9557 60.5913 90.5423C61.5574 90.16 62.6432 89.9506 63.8218 89.9191C63.9655 89.9955 64.2213 90.1413 64.6357 90.4115C65.479 90.961 66.451 91.588 67.5255 92.2743C68.7368 93.0465 70.2973 93.744 72.1617 94.3459C74.0677 94.9622 76.0117 95.2752 77.9413 95.2752C79.8708 95.2752 81.8153 94.9622 83.7203 94.3464C85.5863 93.7435 87.1463 93.0465 88.3591 92.2732C89.4587 91.5704 90.4035 90.9616 91.2468 90.4115C91.6612 90.1418 91.917 89.9955 92.0607 89.9191C93.2399 89.9506 94.3256 90.16 95.2923 90.5423C96.3363 90.9557 97.2229 91.5074 97.9262 92.1803C98.6782 92.8997 99.3596 93.7932 99.9519 94.8356C100.573 95.9278 101.074 97.0626 101.44 98.2071C101.823 99.4034 102.145 100.723 102.397 102.128C102.653 103.554 102.826 104.895 102.91 106.112V106.113C102.997 107.352 103.041 108.646 103.041 109.962C103.041 112.484 102.328 114.389 100.862 115.783V115.783Z" fill="#868686"/>
</svg>
